<?xml version="1.0" encoding="utf-8"?>
<!DOCTYPE svg PUBLIC "-//W3C//DTD SVG 1.1//EN" "http://www.w3.org/Graphics/SVG/1.1/DTD/svg11.dtd">
<svg version="1.1" id="Layer_1" xmlns="http://www.w3.org/2000/svg" xmlns:xlink="http://www.w3.org/1999/xlink" x="0px" y="0px"
	 viewBox="114.9929 197.1629 850.0743 623.6645" enable-background="new 114.9929 197.1629 850.0743 623.6645" xml:space="preserve"
	>
<g id="_x23_ffffffff">
	<path fill="#FFFFFF" stroke="#FFFFFF" stroke-width="0.0938" d="M646.19,239.89c39.59-22.54,86.95-29.09,131.72-22.74
		c23.78,3.42,47,11.11,67.89,23.05c29.7,17.13,55.46,41.62,72.82,71.28c16.26,27.79,23.46,60.36,22.22,92.42
		c-0.77,33.19-11.52,66.12-30.9301,93.1c-18.39,25.54-42.8,46.81-70.73,61.32c-31.02,16.17-66.42,22.48-101.18,21.84
		c-8.3-0.52-16.65-0.81-24.84-2.2599c-2.03-0.31-4.1-0.33-6.04-1c-3.34-0.53-6.73-0.96-9.94-2.03c-0.9-0.15-2.7-0.46-3.61-0.61
		c0,13.11,0.19,26.23,0.07,39.35c1.07,0.03,2.15,0.08,3.23,0.14c0.6,0.04,1.79,0.1,2.39,0.14c0.04-6.99-0.14-13.98,0.02-20.97
		c-0.05-1.8,1.4399-3.06,2.31-4.46c20.45-0.07,40.9-0.05,61.35-0.01c2.86-0.16,5.06,2.8,4.57,5.53c0.1,46.34,0.19,92.67,0.23,139.01
		c0.4,2.76-1.82,5.66-4.72,5.46c-19.99-0.04-39.99,0.15-59.97-0.09c-1.95-0.76-5.12-2.7-4.32-5.17l-1.17,0.5
		c-0.02-5.63-0.02-11.26-0.02-16.88c-0.94,0-2.82-0.01-3.7599-0.01c0.02,9.73,0.1,19.48,0,29.21c0.04,2.49-2.2401,4.68-4.72,4.52
		c-19.2,0.0699-38.4,0.04-57.6,0.0099c0.04,15.84,0,31.69,0.07,47.53c0.2,2.94-2.5601,5.42-5.48,5.03
		c-99.34,0-198.68-0.24-298.02-0.12c-3.05,0.55-6.54-1.58-6.33-4.93c-0.02-15.87-0.01-31.74,0.04-47.61
		c-10.93,0.03-21.85,0.02-32.77,0.01c-3.06,0.41-5.88-2.39-5.42-5.45c0.02-47.04,0.19-94.07,0.25-141.1
		c-19.48-2.21-38.65-7.6-56.21-16.36c-15.74-7.79-30.09-18.3-42.58-30.63c-14.64-14.4-26.86-31.44-34.8-50.44
		c-12.04-28.69-14.05-61.2-7.28-91.45c6.22-27.88,21.69-53.19,42.19-72.89c23.04-22.67,52.58-38.82,84.4-44.89
		c23.87-4.65,48.67-4.74,72.53,0.04c39.17,7.91,75.78,29.82,99.76,61.99c4.75,6.35,8.95,13.09,12.74,20.06
		c32.28-0.06,64.55-0.01,96.83-0.05c1.96-21.5,8.08-42.62,18.01-61.79C586.53,284.74,614.25,258.14,646.19,239.89 M646.49,244.65
		c-30.09,17.75-56.29,43.04-72.66,74.1c-10.56,20.04-16.52,42.34-18.26,64.88c-34.67-0.01-69.33,0-104,0
		c-15.18-30.11-40.89-54.43-71.24-68.92c-30.85-15.14-66.3-19.65-100.2-15.03c-31.79,4.14-62.09,18.21-85.92,39.62
		c-22.2,19.42-39.55,44.99-46.58,73.84c-7.26,29.7-5.67,61.83,5.88,90.25c6.76,16.65,16.96,31.79,29.22,44.89
		c13.04,14.0099,28.43,25.91,45.55,34.52c18.6,9.51,39.13,14.83,59.86,16.9c-0.02,48.73-0.24,97.45-0.26,146.17
		c12.75,0,25.49,0,38.24,0.01c0.02,17.54-0.02,35.09,0.03,52.63c61.62-0.03,123.24,0,184.87-0.01c38.63,0.12,77.28-0.25,115.91,0.18
		c0.16-17.56,0.02-35.12,0.07-52.68c20.79,0,41.58,0,62.38,0c-0.01-11.3,0.01-22.59-0.02-33.88c4.87,0.09,9.75,0.18,14.62,0.11
		c0.04,7.22,0.22,14.43,0.15,21.65c19.75-0.01,39.49-0.01,59.24-0.01c-0.02-46.95-0.12-93.91-0.25-140.87c-19.75,0-39.5,0-59.25,0
		c0,8.46,0,16.92,0,25.37c-4.88,0-9.75,0.01-14.62,0c0.11-17.07-0.17-34.13-0.11-51.19c17.19,4.91,35.02,7.56,52.89,7.85
		c35.6299,0.85,71.81-7.05,102.77-25.02c26.15-15.19,48.98-36.3,65.65-61.57c17.37-26.35,26.32-57.91,26.31-89.41
		c0.31-22.63-3.63-45.41-12.27-66.36c-12.13-29.69-33.52-54.93-58.78-74.38c-25.63-19.86-56.54-32.71-88.65-37.13
		C732.59,214.96,685.51,221.73,646.49,244.65 M454.24,380.69c32.46-0.23,65.06-0.27,97.52,0c-1.32-1.93-3.92-0.08-5.77-0.3
		c-25.3,0.17-50.62-0.02-75.92,0.08c-4.44-0.11-8.92,0.34-13.3-0.5C455.68,379.53,454.83,379.77,454.24,380.69z"/>
	<path fill="#FFFFFF" stroke="#FFFFFF" stroke-width="0.0938" d="M679.06,262.39c14.41-5.18,30.21-6.82,45.26-3.66
		c2.14,20.4,4.36,40.79,6.4,61.2c1.04,11.14-5.28,21.35-12.9399,28.87c-7.94,8.48-19.04,14.39-30.83,14.4
		c-8.25,0.34-15.85-3.22-23.47-5.85c-20.6-7.44-41.25-14.78-61.69-22.66c5.42-17.69,17.52-32.52,31.33-44.47
		C646.78,278.56,662.06,268.45,679.06,262.39 M682.32,266.33c-5.48,1.88-10.82,4.16-16.02,6.7v0.23c-9,4.48-17.4,10.14-25.25,16.4
		c-14.36,11.42-27.8,25.43-33.91,43.06c2.33,0.85,4.66,1.71,7.12,2.13c18.46,6.99,37.06,13.57,55.62,20.28
		c8.82,3.84,19.02,5.18,28.2,1.71c9.49-3.47,17.05-10.85,22.81-18.95c4.01-5.33,5.96-12.28,5.03-18.9
		c-1.88-18.67-4.03-37.31-5.79-55.98C707.51,261.05,694.43,262.28,682.32,266.33z"/>
	<path fill="#FFFFFF" stroke="#FFFFFF" stroke-width="0.0938" d="M765.66,257.5c8.4-1.56,17.04-1.62,25.3701,0.46
		c20.4399,4.7,38.55,16.15,54.9399,28.87c14.3,11.43,28,25.26,33.67,43.12c-18.8,9.07-37.23,18.97-56.55,26.92
		c-5.13,1.9-10.42,4.46-16.03,3.62c-10.39-1.09-19.94-6.13-28.23-12.25c-7.99-5.96-14.4-14.95-14.77-25.19
		C763.66,301.19,763.9,279.3,765.66,257.5 M769.25,261.87c-1.44,19.67-1.6,39.41-1.43,59.13c0.03,2.17,0.12,4.43,1.16,6.4
		c2.79,11.5,13.05,19.05,23.06,24.13c7.31,3.48,16.08,6.75,23.9901,3.28c18.04-6.83,35.12-15.88,52.3799-24.43l0.19,0.38
		c1.7-0.91,3.4301-1.75,5.2-2.54c-0.9-3.71-3-6.97-4.89-10.23c-8.3-13.2-20.37-23.41-32.83-32.52
		c-7.28-5.38-15.06-10.06-23.09-14.22c-5.41-2.78-11.08-5.02-16.88-6.85C787.47,261.67,778.25,260.47,769.25,261.87z"/>
	<path fill="#FFFFFF" stroke="#FFFFFF" stroke-width="0.0938" d="M268.92,334.08c7.2-0.07,14.33-1.34,21.53-1.37
		c1.03,16.99,1.95,34.01,2.19,51.04c-1.33-0.01-2.67-0.01-4-0.01c-0.15,4.93,0.21,9.88-0.17,14.79
		c-4.27,8.52-11.23,16.11-20.21,19.7c-8.1,3.17-17.43,3.25-25.51,0c-18.06-6.89-36.2-13.58-54.12-20.83
		c6.78-21.35,22.91-38.5,41.38-50.52C241.61,339.41,255.07,334.57,268.92,334.08 M258.45,340.28c-6.77,1.44-13.38,3.72-19.47,7.02
		c-6.42,3.5-12.62,7.48-18.07,12.39c-11.53,9.51-21.29,21.52-26.68,35.58c16.41,6.41,32.88,12.65,49.36,18.88
		c7.36,3.19,16.28,3.43,23.57-0.05c7.41-3.1,13.13-9.34,16.93-16.29c0.36-4.88-0.04-9.8,0.3-14.69c0.17-2.07,2.16-3.11,3.83-3.88
		c-0.25-10.37-0.65-20.74-1.24-31.1c0.24-3.53-0.01-7.07-0.53-10.57C277.16,339.03,267.65,338.3,258.45,340.28z"/>
	<path fill="#FFFFFF" stroke="#FFFFFF" stroke-width="0.0938" d="M322.43,332.74c6.52,0.21,13.07-0.52,19.56,0.32
		c14.96,1.7,28.88,8.37,41.26,16.68c13.14,8.73,24.89,19.98,32.49,33.94c-31.58-0.21-63.15,0.12-94.73,0.08
		C320.89,366.74,320.99,349.71,322.43,332.74 M326.29,337.42c-0.56,7.62-1.17,15.31-0.61,22.95c-0.27,6.4-0.04,12.82-0.19,19.24
		c27.52-0.11,55.04-0.04,82.56-0.05c-0.65-0.86-1.33-1.69-2.13-2.39c-0.2-0.24-0.6-0.72-0.81-0.96c-2.1-4.91-6.59-8.29-10.29-11.98
		c-11.11-9.72-23.81-17.83-37.75-22.84C347.25,337.62,336.67,337.29,326.29,337.42z"/>
	<path fill="#FFFFFF" stroke="#FFFFFF" stroke-width="0.0938" d="M720.49,375.67c2.51-2.37,5.04-4.73,7.57-7.09
		c2.95,2.62,5.91,5.23,8.86,7.85c6.71-3.07,14.49-3.68,21.62-1.8c6.64,1.77,11.88,7.08,14.56,13.27c3.4,8.12,1.63,18.21-4.61,24.48
		c-8.53,9.22-23.81,9.96-34.1,3.37c-6.02-3.7-8.8-10.92-8.9-17.74c-0.25-4.79,0.35-9.9,3.4-13.8
		C726.04,381.41,723.33,378.48,720.49,375.67 M727.05,374.96c0.31,3.53,4.09,5.31,6.03,7.99l-0.82,1.3l1.43,0.47
		c-1.05,2.82-3.46,5.06-3.61,8.2c-0.66,5.18-0.16,10.84,2.67,15.35c3.37,4.9,9.52,7.16,15.28,7.33c5.65,0.33,11.92-1.05,15.84-5.41
		c5.94-4.22,7.11-12.54,5.5-19.23c-1.39-3.92-4.09-7.14-7.28-9.72c-4.84-2.79-10.63-3.24-16.06-2.6c-3.76,0.36-7.1,2.37-10.86,2.66
		C732.6,379.06,730.4,376.04,727.05,374.96z"/>
	<path fill="#FFFFFF" stroke="#FFFFFF" stroke-width="0.0938" d="M852.2,380.15c14.81-3.67,29.71-6.97,44.57-10.38
		c7.95,12.47,8.09,27.98,7.09,42.25c-1.64,18.72-6.99,37.03-14.81,54.08c-6.03,12.62-14.24,25.15-26.83,32.01
		c-11.72-11.06-23.64-21.91-35.55-32.77c-11.14-10.43-18.81-24.95-19.27-40.38c-0.86-9.21,6.0699-16.44,11.99-22.55
		C829.06,393.4,839.5,384.44,852.2,380.15 M893.34,375.72c-8.82,1.22-17.39,3.88-26.1,5.68c-7.71,1.93-15.85,2.91-22.78,7.09
		c-2.22,1.48-5.17,2.35-6.48,4.84c-7.12,4.55-13.5,10.23-19.24,16.43c-3.6,4.24-7.75,9.17-7.05,15.14
		c0.45,14.55,7.86,28.15,18.46,37.87c10.55,9.49,20.95,19.15,31.36,28.8c-0.23,0.97,1.16,1.27,1.72,0.69
		c5.85-4.12,10.6-9.64,14.51-15.58c7.32-11.25,12.11-23.92,15.91-36.72c4.91-17.16,7.39-35.34,4.63-53.09
		c-0.8-4.08-2.11-8.03-3.79-11.82C894.2,375.22,893.63,375.55,893.34,375.72z"/>
	<path fill="#FFFFFF" stroke="#FFFFFF" stroke-width="0.0938" d="M592.89,374.06c23.39,3.28,46.77,6.65,70.16,9.96
		c1.98,0.28,3.99,0.28,6,0.43c-14.65,0.74-29.36,0-44.03,0.39c-11.15,0.08-22.3,0.01-33.45,0.03
		C592.01,381.27,592.46,377.66,592.89,374.06z"/>
	<path fill="#FFFFFF" stroke="#FFFFFF" stroke-width="0.0938" d="M689.04,414.24c4.67,1.13,9.34,2.22,14.04,3.26
		c-4.28,10.42-9.87,20.29-13.9,30.82C688.8,436.96,689.05,425.59,689.04,414.24 M693.31,420.22c-0.28,2.62-0.43,5.28,0.16,7.88
		c1.07-2.36,2.09-4.74,3.14-7.1C695.5,420.73,694.4,420.47,693.31,420.22z"/>
	<path fill="#FFFFFF" stroke="#FFFFFF" stroke-width="0.0938" d="M180.02,433.93c16.34,2.07,32.68,4.18,49.02,6.23
		c5.19,0.46,10.46,1.94,14.48,5.39c6.97,6.03,9.34,15.55,10.24,24.37c0.99,11.01,0.76,23.34-6.5,32.37
		c-9.93,11.51-19.99,22.91-30.13,34.23c-9.58-5.34-16.75-14.02-22.29-23.32c-10.15-17.25-16.57-37.01-16.54-57.15
		C178.45,448.66,178.17,441.15,180.02,433.93 M183.32,438.98c-1.24,12.73-1.21,25.73,1.62,38.27c0.22,1.12,0.67,2.16,1.33,3.1
		c0.64,3.87,2.11,7.54,3.41,11.22c5.7,14.52,13.28,29.14,25.94,38.79c1.18,1.01,2.04-1.05,2.91-1.6
		c8.39-10.01,17.33-19.57,25.73-29.58c6.49-8.53,6-19.96,5.1-30.08c-0.99-7.67-3.12-16.48-10.11-20.87c-1.8-2-4.58-2.42-7.08-2.9
		C215.9,443.13,199.58,441.27,183.32,438.98z"/>
	<path fill="#FFFFFF" stroke="#FFFFFF" stroke-width="0.0938" d="M723.95,456.11c8.73-5.89,19.58-7.91,29.97-7.27
		c10.27,0.75,19.6,6.32,26.63,13.62c6.71,6.58,11.47,14.76,16.57,22.58c8.83,13.65,17.66,27.32,26.5,40.97
		c-12.5,10.97-29.45,14.59-45.53,16.39c-22.01,1.98-44.46,1.5099-66.06-3.46c-7.92-1.85-15.6-4.64-22.8701-8.27
		c0.01-8.49-0.18-16.99,0.08-25.47c6.8-11.46,14.05-22.67,21.01-34.05C713.74,465.29,718.22,459.89,723.95,456.11 M732.61,456.59
		c-3.08,1.48-6.81,2.6-8.7,5.65c-3.66,2.55-6.47,6.1-8.84,9.83c-6.64,10.63-13.2,21.32-19.88,31.92c-0.67,0.91-1.9,1.64-1.85,2.91
		c-0.1201,7.13-0.04,14.27,0.03,21.41c8.5,3.78,17.44,6.59,26.61,8.18c19.8,3.43,40.1,3.78,60.05,1.5
		c13.17-1.72,26.74-4.8,37.62-12.81c-10.45-15.87-20.63-31.92-31.01-47.83c-4.47-6.75-9.91-12.92-16.5-17.66
		c-2.49-1.72-5.21-3.07-8-4.24C752.62,452.12,741.96,453.15,732.61,456.59z"/>
	<path fill="#FFFFFF" stroke="#FFFFFF" stroke-width="0.0938" d="M275.23,514.28c3.26-5.48,7.95-10.11,13.5-13.25
		c-0.87,23.56-0.34,47.19-0.46,70.78c-13.88-1.58-28.48-4.91-39.16-14.51C257.79,542.94,266.53,528.63,275.23,514.28 M274.07,525.01
		c-6.28,10.59-13.01,20.91-19,31.66c7.66,5.39,16.75,8.37,25.92,9.88c1.01,0.09,2.03,0.08,3.04-0.02
		c-0.27-16.19-0.11-32.4-0.06-48.59c0.4-2.43,0.09-4.93,0.07-7.37C279.71,514.62,277.25,520.11,274.07,525.01z"/>
</g>
<g id="_x23_030303ff">
	<path fill="#030303" stroke="#030303" stroke-width="0.0938" d="M646.49,244.65c39.02-22.92,86.1-29.69,130.57-23.49
		c32.11,4.42,63.02,17.27,88.65,37.13c25.2599,19.45,46.65,44.69,58.78,74.38c8.64,20.95,12.58,43.73,12.27,66.36
		c0.01,31.5-8.94,63.06-26.31,89.41c-16.67,25.27-39.5,46.38-65.65,61.57c-30.96,17.97-67.14,25.87-102.77,25.02
		c-17.8701-0.29-35.7-2.94-52.89-7.85c-0.06,17.06,0.22,34.12,0.11,51.19c4.87,0.01,9.74,0,14.62,0c0-8.45,0-16.91,0-25.37
		c19.75,0,39.5,0,59.25,0c0.13,46.96,0.23,93.92,0.25,140.87c-19.75,0-39.49,0-59.24,0.01c0.07-7.22-0.11-14.43-0.15-21.65
		c-4.87,0.07-9.75-0.02-14.62-0.11c0.03,11.29,0.01,22.58,0.02,33.88c-20.8,0-41.59,0-62.38,0c-0.05,17.56,0.09,35.12-0.07,52.68
		c-38.63-0.43-77.28-0.06-115.91-0.18c-61.63,0.01-123.25-0.02-184.87,0.01c-0.05-17.54-0.01-35.09-0.03-52.63
		c-12.75-0.01-25.49-0.01-38.24-0.01c0.02-48.72,0.24-97.44,0.26-146.17c-20.73-2.07-41.26-7.39-59.86-16.9
		c-17.12-8.61-32.51-20.51-45.55-34.52c-12.26-13.1-22.46-28.2401-29.22-44.89c-11.55-28.42-13.14-60.55-5.88-90.25
		c7.03-28.85,24.38-54.42,46.58-73.84c23.83-21.41,54.13-35.48,85.92-39.62c33.9-4.62,69.35-0.11,100.2,15.03
		c30.35,14.49,56.06,38.81,71.24,68.92c34.67,0,69.33-0.01,104,0c1.74-22.54,7.7-44.84,18.26-64.88
		C590.2,287.69,616.4,262.4,646.49,244.65 M679.06,262.39c-17,6.06-32.28,16.17-45.94,27.83c-13.81,11.95-25.91,26.78-31.33,44.47
		c20.44,7.88,41.09,15.22,61.69,22.66c7.62,2.63,15.22,6.19,23.47,5.85c11.79-0.01,22.89-5.92,30.83-14.4
		c7.66-7.52,13.98-17.73,12.9399-28.87c-2.04-20.41-4.2599-40.8-6.4-61.2C709.27,255.57,693.47,257.21,679.06,262.39 M765.66,257.5
		c-1.7599,21.8-2,43.69-1.6,65.55c0.37,10.24,6.78,19.23,14.77,25.19c8.29,6.12,17.84,11.16,28.23,12.25
		c5.61,0.84,10.9-1.72,16.03-3.62c19.3199-7.95,37.75-17.85,56.55-26.92c-5.67-17.86-19.37-31.69-33.67-43.12
		c-16.39-12.72-34.5-24.17-54.9399-28.87C782.7,255.88,774.06,255.94,765.66,257.5 M268.92,334.08
		c-13.85,0.49-27.31,5.33-38.91,12.8c-18.47,12.02-34.6,29.17-41.38,50.52c17.92,7.25,36.06,13.94,54.12,20.83
		c8.08,3.25,17.41,3.17,25.51,0c8.98-3.59,15.94-11.18,20.21-19.7c0.38-4.91,0.02-9.86,0.17-14.79c1.33,0,2.67,0,4,0.01
		c-0.24-17.03-1.16-34.05-2.19-51.04C283.25,332.74,276.12,334.01,268.92,334.08 M322.43,332.74c-1.44,16.97-1.54,34-1.42,51.02
		c31.58,0.04,63.15-0.29,94.73-0.08c-7.6-13.96-19.35-25.21-32.49-33.94c-12.38-8.31-26.3-14.98-41.26-16.68
		C335.5,332.22,328.95,332.95,322.43,332.74 M720.49,375.67c2.84,2.81,5.55,5.74,8.4,8.54c-3.05,3.9-3.65,9.01-3.4,13.8
		c0.1,6.82,2.88,14.04,8.9,17.74c10.29,6.59,25.57,5.85,34.1-3.37c6.24-6.27,8.01-16.36,4.61-24.48
		c-2.68-6.19-7.92-11.5-14.56-13.27c-7.13-1.88-14.91-1.27-21.62,1.8c-2.95-2.62-5.91-5.23-8.86-7.85
		C725.53,370.94,723,373.3,720.49,375.67 M852.2,380.15c-12.7,4.29-23.14,13.25-32.81,22.26c-5.92,6.11-12.85,13.34-11.99,22.55
		c0.46,15.43,8.13,29.95,19.27,40.38c11.91,10.86,23.83,21.71,35.55,32.77c12.59-6.86,20.8-19.39,26.83-32.01
		c7.82-17.05,13.17-35.36,14.81-54.08c1-14.27,0.86-29.78-7.09-42.25C881.91,373.18,867.01,376.48,852.2,380.15 M592.89,374.06
		c-0.43,3.6-0.88,7.21-1.32,10.81c11.15-0.02,22.3,0.05,33.45-0.03c14.67-0.39,29.38,0.35,44.03-0.39c-2.01-0.15-4.02-0.15-6-0.43
		C639.66,380.71,616.28,377.34,592.89,374.06 M689.04,414.24c0.01,11.35-0.24,22.72,0.14,34.08c4.03-10.53,9.62-20.4,13.9-30.82
		C698.38,416.46,693.71,415.37,689.04,414.24 M180.02,433.93c-1.85,7.22-1.57,14.73-1.72,22.12c-0.03,20.14,6.39,39.9,16.54,57.15
		c5.54,9.3,12.71,17.98,22.29,23.32c10.14-11.32,20.2-22.72,30.13-34.23c7.26-9.03,7.49-21.36,6.5-32.37
		c-0.9-8.82-3.27-18.34-10.24-24.37c-4.02-3.45-9.29-4.93-14.48-5.39C212.7,438.11,196.36,436,180.02,433.93 M723.95,456.11
		c-5.73,3.78-10.21,9.18-13.7,15.04c-6.96,11.38-14.21,22.59-21.01,34.05c-0.26,8.48-0.07,16.98-0.08,25.47
		c7.27,3.63,14.95,6.42,22.8701,8.27c21.6,4.97,44.05,5.44,66.06,3.46c16.08-1.8,33.03-5.42,45.53-16.39
		c-8.84-13.65-17.67-27.32-26.5-40.97c-5.1-7.82-9.86-16-16.57-22.58c-7.03-7.3-16.36-12.87-26.63-13.62
		C743.53,448.2,732.68,450.22,723.95,456.11 M275.23,514.28c-8.7,14.35-17.44,28.66-26.12,43.02c10.68,9.6,25.28,12.93,39.16,14.51
		c0.12-23.59-0.41-47.22,0.46-70.78C283.18,504.17,278.49,508.8,275.23,514.28z"/>
</g>
<g id="_x23_a7a7a7ff">
	<path fill="#A7A7A7" stroke="#A7A7A7" stroke-width="0.0938" d="M769.25,261.87c9-1.4,18.22-0.2,26.86,2.53
		c-1.16,1.72-2.33,3.44-3.49,5.16c-7.45-2.22-15.29-3.76-23.08-2.9c-0.95,14.08-1.09,28.19-1.17,42.29
		c0.18,6.15-0.13,12.33,0.61,18.45c-1.04-1.97-1.13-4.23-1.16-6.4C767.65,301.28,767.81,281.54,769.25,261.87z"/>
	<path fill="#A7A7A7" stroke="#A7A7A7" stroke-width="0.0938" d="M682.32,266.33c12.11-4.05,25.19-5.28,37.81-3.32
		c-0.9,1.65-1.79,3.31-2.56,5.03c-11.59-1.69-23.52-0.71-34.7,2.76C682.68,269.31,682.49,267.82,682.32,266.33z"/>
	<path fill="#A7A7A7" stroke="#A7A7A7" stroke-width="0.0938" d="M183.32,438.98c16.26,2.29,32.58,4.15,48.85,6.35
		c2.5,0.48,5.28,0.9,7.08,2.9c-16.49-2.42-33.09-4.09-49.56-6.54c-1.87-0.61-3.71-1.26-5.56-1.87c-0.94,11.36-1.23,22.92,1.08,34.14
		c0.42,2.12,0.75,4.25,1.06,6.39c-0.66-0.94-1.11-1.98-1.33-3.1C182.11,464.71,182.08,451.71,183.32,438.98z"/>
</g>
<g id="_x23_606060ff">
	<path fill="#606060" stroke="#606060" stroke-width="0.0938" d="M717.57,268.04c0.77-1.72,1.66-3.38,2.56-5.03
		c1.76,18.67,3.91,37.31,5.79,55.98c0.93,6.62-1.02,13.57-5.03,18.9c2.07-4.63,3.13-9.73,2.44-14.79
		C721.42,304.74,719.42,286.39,717.57,268.04z"/>
</g>
<g id="_x23_9b9b9bff">
	<path fill="#9B9B9B" stroke="#9B9B9B" stroke-width="0.0938" d="M792.62,269.56c1.16-1.72,2.33-3.44,3.49-5.16
		c5.8,1.83,11.47,4.07,16.88,6.85c-1.28,1.69-2.53,3.39-3.75,5.11C803.9,273.64,798.34,271.34,792.62,269.56z"/>
</g>
<g id="_x23_9c9c9cff">
	<path fill="#9C9C9C" stroke="#9C9C9C" stroke-width="0.0938" d="M666.3,273.03c5.2-2.54,10.54-4.82,16.02-6.7
		c0.17,1.49,0.36,2.98,0.55,4.47c-5.66,1.76-11.17,3.98-16.45,6.66c-0.05-1.4-0.08-2.8-0.12-4.2V273.03z"/>
</g>
<g id="_x23_8e8e8eff">
	<path fill="#8E8E8E" stroke="#8E8E8E" stroke-width="0.0938" d="M809.24,276.36c1.22-1.72,2.47-3.42,3.75-5.11
		c8.03,4.16,15.81,8.84,23.09,14.22c-1.68,1.44-3.38,2.85-5.11,4.21C824.07,284.71,816.82,280.21,809.24,276.36z"/>
</g>
<g id="_x23_8f8f8fff">
	<path fill="#8F8F8F" stroke="#8F8F8F" stroke-width="0.0938" d="M641.05,289.66c7.85-6.26,16.25-11.92,25.25-16.4
		c0.04,1.4,0.07,2.8,0.12,4.2c-7.75,3.88-15.07,8.57-22.01,13.75C643.28,290.69,642.16,290.17,641.05,289.66z"/>
</g>
<g id="_x23_7e7e7eff">
	<path fill="#7E7E7E" stroke="#7E7E7E" stroke-width="0.0938" d="M830.97,289.68c1.73-1.36,3.4301-2.77,5.11-4.21
		c12.46,9.11,24.53,19.32,32.83,32.52c1.89,3.26,3.9901,6.52,4.89,10.23c-1.77,0.79-3.5,1.63-5.2,2.54l-0.19-0.38
		C860.53,313.28,845.96,300.51,830.97,289.68z"/>
	<path fill="#7E7E7E" stroke="#7E7E7E" stroke-width="0.0938" d="M727.05,374.96c3.35,1.08,5.55,4.1,8.12,6.34
		c-0.73,0.51-1.43,1.06-2.09,1.65C731.14,380.27,727.36,378.49,727.05,374.96z"/>
</g>
<g id="_x23_848484ff">
	<path fill="#848484" stroke="#848484" stroke-width="0.0938" d="M607.14,332.72c6.11-17.63,19.55-31.64,33.91-43.06
		c1.11,0.51,2.23,1.03,3.36,1.55c-14.64,11-28.35,24.36-35.77,41.39c1.88,0.71,3.76,1.46,5.62,2.25
		C611.8,334.43,609.47,333.57,607.14,332.72z"/>
	<path fill="#848484" stroke="#848484" stroke-width="0.0938" d="M693.31,420.22c1.09,0.25,2.19,0.51,3.3,0.78
		c-1.05,2.36-2.07,4.74-3.14,7.1C692.88,425.5,693.03,422.84,693.31,420.22z"/>
</g>
<g id="_x23_a8a8a8ff">
	<path fill="#A8A8A8" stroke="#A8A8A8" stroke-width="0.0938" d="M326.29,337.42c10.38-0.13,20.96,0.2,30.78,3.97
		c-1.14,0.72-2.29,1.45-3.43,2.17c-7.52-2.11-15.37-2.05-23.12-1.94c-1.14-1.24-2.27-2.47-3.41-3.7
		c-0.62,7.47-0.66,14.98-1.43,22.45C325.12,352.73,325.73,345.04,326.29,337.42z"/>
	<path fill="#A8A8A8" stroke="#A8A8A8" stroke-width="0.0938" d="M258.45,340.28c9.2-1.98,18.71-1.25,28-2.71
		c0.52,3.5,0.77,7.04,0.53,10.57c-0.15-2.02-0.32-4.06-0.47-6.08c-8.34,1.14-16.87,0.48-25.08,2.56
		C260.43,343.17,259.43,341.72,258.45,340.28z"/>
</g>
<g id="_x23_5a5a5aff">
	<path fill="#5A5A5A" stroke="#5A5A5A" stroke-width="0.0938" d="M327.11,337.92c1.14,1.23,2.27,2.46,3.41,3.7
		c-0.86,12.52-1.11,25.08-1.15,37.63c25.91-0.02,51.81,0.04,77.71-0.03c-0.29-0.52-0.87-1.54-1.16-2.05c0.8,0.7,1.48,1.53,2.13,2.39
		c-27.52,0.01-55.04-0.06-82.56,0.05c0.15-6.42-0.08-12.84,0.19-19.24C326.45,352.9,326.49,345.39,327.11,337.92z"/>
</g>
<g id="_x23_9e9e9eff">
	<path fill="#9E9E9E" stroke="#9E9E9E" stroke-width="0.0938" d="M238.98,347.3c6.09-3.3,12.7-5.58,19.47-7.02
		c0.98,1.44,1.98,2.89,2.98,4.34c-5.54,1.31-10.9,3.28-15.99,5.82C243.31,349.35,241.15,348.3,238.98,347.3z"/>
	<path fill="#9E9E9E" stroke="#9E9E9E" stroke-width="0.0938" d="M353.64,343.56c1.14-0.72,2.29-1.45,3.43-2.17
		c13.94,5.01,26.64,13.12,37.75,22.84c3.7,3.69,8.19,7.07,10.29,11.98C391.19,361.18,373.53,349.04,353.64,343.56z"/>
	<path fill="#9E9E9E" stroke="#9E9E9E" stroke-width="0.0938" d="M454.24,380.69c0.59-0.92,1.44-1.16,2.53-0.72
		c4.38,0.84,8.86,0.39,13.3,0.5c25.3-0.1,50.62,0.09,75.92-0.08c1.85,0.22,4.45-1.63,5.77,0.3
		C519.3,380.42,486.7,380.46,454.24,380.69z"/>
</g>
<g id="_x23_8c8c8cff">
	<path fill="#8C8C8C" stroke="#8C8C8C" stroke-width="0.0938" d="M220.91,359.69c5.45-4.91,11.65-8.89,18.07-12.39
		c2.17,1,4.33,2.05,6.46,3.14c-6.48,3.31-12.56,7.36-18.14,12.03c-1.17-0.97-2.33-1.93-3.49-2.89
		C222.84,359.61,221.88,359.65,220.91,359.69z"/>
</g>
<g id="_x23_757575ff">
	<path fill="#757575" stroke="#757575" stroke-width="0.0938" d="M220.91,359.69c0.97-0.04,1.93-0.08,2.9-0.11
		c1.16,0.96,2.32,1.92,3.49,2.89c-11.31,9.31-21.04,20.89-26.59,34.56c14.95,6,30.06,11.57,45.12,17.29
		c6.84,2.66,14.48,2.11,21.33-0.22c-7.29,3.48-16.21,3.24-23.57,0.05c-16.48-6.23-32.95-12.47-49.36-18.88
		C199.62,381.21,209.38,369.2,220.91,359.69z"/>
</g>
<g id="_x23_717171ff">
	<path fill="#717171" stroke="#717171" stroke-width="0.0938" d="M893.34,375.72c0.29-0.17,0.86-0.5,1.15-0.67
		c1.68,3.79,2.99,7.74,3.79,11.82c-0.59-0.16-1.79-0.47-2.39-0.63c-1.09,0.57-2.18,1.13-3.25,1.71c-0.73-3.2-1.95-6.26-3.34-9.22
		C890.66,377.76,891.96,376.69,893.34,375.72z"/>
</g>
<g id="_x23_a4a4a4ff">
	<path fill="#A4A4A4" stroke="#A4A4A4" stroke-width="0.0938" d="M867.24,381.4c8.71-1.8,17.28-4.46,26.1-5.68
		c-1.38,0.97-2.6801,2.04-4.04,3.01c-7.08,1.73-14.19,3.28-21.28,4.95c-10.21,2.56-21.02,3.79-30.04,9.65
		c1.31-2.49,4.26-3.36,6.48-4.84C851.39,384.31,859.53,383.33,867.24,381.4z"/>
</g>
<g id="_x23_a5a5a5ff">
	<path fill="#A5A5A5" stroke="#A5A5A5" stroke-width="0.0938" d="M735.17,381.3c3.76-0.29,7.1-2.3,10.86-2.66
		c5.43-0.64,11.22-0.19,16.06,2.6c-1.09,1.16-2.16,2.33-3.23,3.5c-4.77-2.88-10.6-3.32-16.01-2.51c-3.16,0.44-6,2.08-9.16,2.49
		l-1.43-0.47l0.82-1.3C733.74,382.36,734.44,381.81,735.17,381.3z"/>
</g>
<g id="_x23_7d7d7dff">
	<path fill="#7D7D7D" stroke="#7D7D7D" stroke-width="0.0938" d="M758.86,384.74c1.07-1.17,2.14-2.34,3.23-3.5
		c3.19,2.58,5.89,5.8,7.28,9.72c-1.42,0.41-2.81,0.83-4.2,1.24C763.63,389.29,761.48,386.73,758.86,384.74z"/>
</g>
<g id="_x23_5f5f5fff">
	<path fill="#5F5F5F" stroke="#5F5F5F" stroke-width="0.0938" d="M892.64,387.95c1.07-0.58,2.16-1.14,3.25-1.71
		c0.6,0.16,1.8,0.47,2.39,0.63c2.7599,17.75,0.28,35.93-4.63,53.09c-3.8,12.8-8.59,25.47-15.91,36.72
		c-3.91,5.94-8.66,11.46-14.51,15.58c-0.56,0.58-1.95,0.28-1.72-0.69c12.9-11.07,19.84-27.21,25.19-42.96
		C892.97,429.2,896.69,408.2,892.64,387.95z"/>
	<path fill="#5F5F5F" stroke="#5F5F5F" stroke-width="0.0938" d="M765.17,392.2c1.39-0.41,2.78-0.83,4.2-1.24
		c1.61,6.69,0.44,15.01-5.5,19.23C767.04,404.79,767.87,397.97,765.17,392.2z"/>
</g>
<g id="_x23_5b5b5bff">
	<path fill="#5B5B5B" stroke="#5B5B5B" stroke-width="0.0938" d="M184.13,439.82c1.85,0.61,3.69,1.26,5.56,1.87
		c-1.02,11.83-1.23,23.89,1.21,35.57c2.55,12.36,7.38,24.2,13.78,35.07c3.83,6.02,7.84,12.35,13.85,16.43
		c-0.87,0.55-1.73,2.61-2.91,1.6c-12.66-9.65-20.24-24.27-25.94-38.79c-1.3-3.68-2.77-7.35-3.41-11.22
		c-0.31-2.14-0.64-4.27-1.06-6.39C182.9,462.74,183.19,451.18,184.13,439.82z"/>
</g>
<g id="_x23_a6a6a6ff">
	<path fill="#A6A6A6" stroke="#A6A6A6" stroke-width="0.0938" d="M732.61,456.59c9.35-3.44,20.01-4.47,29.53-1.14
		c-1.21,0.74-2.42,1.47-3.62,2.21c-11.43-3.71-24.39-1.54-34.61,4.58C725.8,459.19,729.53,458.07,732.61,456.59z"/>
</g>
<g id="_x23_979797ff">
	<path fill="#979797" stroke="#979797" stroke-width="0.0938" d="M758.52,457.66c1.2-0.74,2.41-1.47,3.62-2.21
		c2.79,1.17,5.51,2.52,8,4.24c-1.43,0.55-2.86,1.1-4.28,1.65C763.54,459.87,761.08,458.65,758.52,457.66z"/>
</g>
<g id="_x23_7b7b7bff">
	<path fill="#7B7B7B" stroke="#7B7B7B" stroke-width="0.0938" d="M765.86,461.34c1.42-0.55,2.85-1.1,4.28-1.65
		c6.59,4.74,12.03,10.91,16.5,17.66c10.38,15.91,20.56,31.96,31.01,47.83c-10.88,8.01-24.45,11.09-37.62,12.81
		c-19.95,2.28-40.25,1.93-60.05-1.5c-9.17-1.59-18.11-4.4-26.61-8.18c-0.07-7.14-0.15-14.28-0.03-21.41c-0.05-1.27,1.18-2,1.85-2.91
		c-0.83,1.54-1.59,3.17-1.45,4.97c-0.02,6.27,0.01,12.53,0.03,18.8c18.16,8.38,38.42,10.58,58.21,10.96
		c14.32,0.11,28.79-0.56,42.76-3.98c6.66-1.63,13-4.52,18.65-8.41c-6.78-10.46-13.55-20.94-20.32-31.41
		C785.07,482.98,778.26,469.42,765.86,461.34z"/>
</g>
<g id="_x23_747474ff">
	<path fill="#747474" stroke="#747474" stroke-width="0.0938" d="M274.07,525.01c3.18-4.9,5.64-10.39,9.97-14.44
		c0.02,2.44,0.33,4.94-0.07,7.37c-8.11,12.96-15.92,26.1-23.89,39.15c7.09,5.1,15.61,7.37,23.95,9.44c-1.01,0.1-2.03,0.11-3.04,0.02
		c-9.17-1.51-18.26-4.49-25.92-9.88C261.06,545.92,267.79,535.6,274.07,525.01z"/>
</g>
<g id="_x23_5e5e5efc">
	<path fill="#5E5E5E" stroke="#5E5E5E" stroke-width="0.0938" d="M697.07,592.81c0.04-2.39,2.24-4.17,4.52-4.35
		c-0.8701,1.4-2.36,2.66-2.31,4.46c-0.16,6.99,0.02,13.98-0.02,20.97c-0.6-0.04-1.79-0.1-2.39-0.14
		C697.21,606.77,696.81,599.78,697.07,592.81z"/>
</g>
</svg>
